<svg width="312" height="485" xmlns="http://www.w3.org/2000/svg" xmlns:xlink="http://www.w3.org/1999/xlink">
    <defs>
        <filter x="-.6%" y="-.4%" width="102.6%" height="101.7%" filterUnits="objectBoundingBox" id="a">
            <feOffset dx="2" dy="2" in="SourceAlpha" result="shadowOffsetOuter1" />
            <feGaussianBlur stdDeviation="1" in="shadowOffsetOuter1" result="shadowBlurOuter1" />
            <feComposite in="shadowBlurOuter1" in2="SourceAlpha" operator="out" result="shadowBlurOuter1" />
            <feColorMatrix values="0 0 0 0 0.396078431 0 0 0 0 0.396078431 0 0 0 0 0.396078431 0 0 0 0.251256556 0"
                in="shadowBlurOuter1" />
        </filter>
        <filter x="-2.2%" y="-1.4%" width="105.8%" height="103.7%" filterUnits="objectBoundingBox" id="c">
            <feMorphology radius="4" operator="dilate" in="SourceAlpha" result="shadowSpreadOuter1" />
            <feOffset dx="2" dy="2" in="shadowSpreadOuter1" result="shadowOffsetOuter1" />
            <feGaussianBlur stdDeviation="1" in="shadowOffsetOuter1" result="shadowBlurOuter1" />
            <feComposite in="shadowBlurOuter1" in2="SourceAlpha" operator="out" result="shadowBlurOuter1" />
            <feColorMatrix values="0 0 0 0 0.396078431 0 0 0 0 0.396078431 0 0 0 0 0.396078431 0 0 0 0.251256556 0"
                in="shadowBlurOuter1" />
        </filter>
        <rect id="b" x="0" y="0" width="308" height="481" rx="5" />
        <rect id="d" x="15" y="24" width="277.2" height="432.9" rx="5" />
    </defs>
    <g fill="none" fill-rule="evenodd">
        <use fill="#000" filter="url(#a)" xlink:href="#b" />
        <rect stroke-opacity=".25" stroke="#656565" stroke-linejoin="square" fill="#FFF" x=".5" y=".5" width="307"
            height="480" rx="5" />
        <g opacity=".9">
            <use fill="#000" filter="url(#c)" xlink:href="#d" />
            <rect stroke-opacity=".858" stroke="#B41D1D" stroke-width="4" fill-opacity=".9" fill="#F42C2C" x="13" y="22"
                width="281.2" height="436.9" rx="5" />
        </g>
        <g fill="#FFF" stroke="#B41D1D">
            <path
                d="m35.758 60.043 11.218 5.832a19.062 19.062 0 0 1-11.076 3.52 19.062 19.062 0 0 1-11.196-3.606l11.054-5.746zm18.407-14.62c.479 1.648.735 3.39.735 5.19 0 4.566-1.649 8.752-4.39 12.007L48.48 50.903zm-36.591.215 5.462 5.265-1.983 11.431A18.569 18.569 0 0 1 16.9 50.613c0-1.723.234-3.39.674-4.975zm24.4-12.827c2.58.86 4.912 2.253 6.862 4.046l-5.218-.75zm-12.49.118-1.586 3.179-4.882.7a19.037 19.037 0 0 1 6.469-3.88zM35.758 212.043l11.218 5.832a19.062 19.062 0 0 1-11.076 3.52 19.062 19.062 0 0 1-11.196-3.606l11.054-5.746zm18.407-14.62c.479 1.648.735 3.39.735 5.19 0 4.566-1.649 8.752-4.39 12.007l-2.031-11.717zm-36.591.215 5.462 5.265-1.983 11.431a18.569 18.569 0 0 1-4.153-11.721c0-1.723.234-3.39.674-4.975zm24.4-12.827c2.58.86 4.912 2.253 6.862 4.046l-5.218-.75zm-12.49.118-1.586 3.179-4.882.7a19.037 19.037 0 0 1 6.469-3.88zM35.758 136.043l11.218 5.832a19.062 19.062 0 0 1-11.076 3.52 19.062 19.062 0 0 1-11.196-3.606l11.054-5.746zm18.407-14.62c.479 1.648.735 3.39.735 5.19 0 4.566-1.649 8.752-4.39 12.007l-2.031-11.717zm-36.591.215 5.462 5.265-1.983 11.431a18.569 18.569 0 0 1-4.153-11.721c0-1.723.234-3.39.674-4.975zm24.4-12.827c2.58.86 4.912 2.253 6.862 4.046l-5.218-.75zm-12.49.118-1.586 3.179-4.882.7a19.037 19.037 0 0 1 6.469-3.88zM35.758 288.043l11.218 5.832a19.062 19.062 0 0 1-11.076 3.52 19.062 19.062 0 0 1-11.196-3.606l11.054-5.746zm18.407-14.62c.479 1.648.735 3.39.735 5.19 0 4.566-1.649 8.752-4.39 12.007l-2.031-11.717zm-36.591.215 5.462 5.265-1.983 11.431a18.569 18.569 0 0 1-4.153-11.721c0-1.723.234-3.39.674-4.975zm24.4-12.827c2.58.86 4.912 2.253 6.862 4.046l-5.218-.75zm-12.49.118-1.586 3.179-4.882.7a19.037 19.037 0 0 1 6.469-3.88zM35.758 364.043l11.218 5.832a19.062 19.062 0 0 1-11.076 3.52 19.062 19.062 0 0 1-11.196-3.606l11.054-5.746zm18.407-14.62c.479 1.648.735 3.39.735 5.19 0 4.566-1.649 8.752-4.39 12.007l-2.031-11.717zm-36.591.215 5.462 5.265-1.983 11.431a18.569 18.569 0 0 1-4.153-11.721c0-1.723.234-3.39.674-4.975zm24.4-12.827c2.58.86 4.912 2.253 6.862 4.046l-5.218-.75zm-12.49.118-1.586 3.179-4.882.7a19.037 19.037 0 0 1 6.469-3.88zM35.758 98.043l11.218 5.832a19.062 19.062 0 0 1-11.076 3.52 19.062 19.062 0 0 1-11.196-3.606l11.054-5.746zm18.407-14.62c.479 1.648.735 3.39.735 5.19 0 4.566-1.649 8.752-4.39 12.007L48.48 88.903zm-36.591.215 5.462 5.265-1.983 11.431A18.569 18.569 0 0 1 16.9 88.613c0-1.723.234-3.39.674-4.975zm24.4-12.827c2.58.86 4.912 2.253 6.862 4.046l-5.218-.75zm-12.49.118-1.586 3.179-4.882.7a19.037 19.037 0 0 1 6.469-3.88zM35.758 250.043l11.218 5.832a19.062 19.062 0 0 1-11.076 3.52 19.062 19.062 0 0 1-11.196-3.606l11.054-5.746zm18.407-14.62c.479 1.648.735 3.39.735 5.19 0 4.566-1.649 8.752-4.39 12.007l-2.031-11.717zm-36.591.215 5.462 5.265-1.983 11.431a18.569 18.569 0 0 1-4.153-11.721c0-1.723.234-3.39.674-4.975zm24.4-12.827c2.58.86 4.912 2.253 6.862 4.046l-5.218-.75zm-12.49.118-1.586 3.179-4.882.7a19.037 19.037 0 0 1 6.469-3.88zM35.758 174.043l11.218 5.832a19.062 19.062 0 0 1-11.076 3.52 19.062 19.062 0 0 1-11.196-3.606l11.054-5.746zm18.407-14.62c.479 1.648.735 3.39.735 5.19 0 4.566-1.649 8.752-4.39 12.007l-2.031-11.717zm-36.591.215 5.462 5.265-1.983 11.431a18.569 18.569 0 0 1-4.153-11.721c0-1.723.234-3.39.674-4.975zm24.4-12.827c2.58.86 4.912 2.253 6.862 4.046l-5.218-.75zm-12.49.118-1.586 3.179-4.882.7a19.037 19.037 0 0 1 6.469-3.88zM35.758 326.043l11.218 5.832a19.062 19.062 0 0 1-11.076 3.52 19.062 19.062 0 0 1-11.196-3.606l11.054-5.746zm18.407-14.62c.479 1.648.735 3.39.735 5.19 0 4.566-1.649 8.752-4.39 12.007l-2.031-11.717zm-36.591.215 5.462 5.265-1.983 11.431a18.569 18.569 0 0 1-4.153-11.721c0-1.723.234-3.39.674-4.975zm24.4-12.827c2.58.86 4.912 2.253 6.862 4.046l-5.218-.75zm-12.49.118-1.586 3.179-4.882.7a19.037 19.037 0 0 1 6.469-3.88zM35.758 402.043l11.218 5.832a19.062 19.062 0 0 1-11.076 3.52 19.062 19.062 0 0 1-11.196-3.606l11.054-5.746zm18.407-14.62c.479 1.648.735 3.39.735 5.19 0 4.566-1.649 8.752-4.39 12.007l-2.031-11.717zm-36.591.215 5.462 5.265-1.983 11.431a18.569 18.569 0 0 1-4.153-11.721c0-1.723.234-3.39.674-4.975zm24.4-12.827c2.58.86 4.912 2.253 6.862 4.046l-5.218-.75zm-12.49.118-1.586 3.179-4.882.7a19.037 19.037 0 0 1 6.469-3.88zM35.758 440.043l11.218 5.832a19.062 19.062 0 0 1-11.076 3.52 19.062 19.062 0 0 1-11.196-3.606l11.054-5.746zm18.407-14.62c.479 1.648.735 3.39.735 5.19 0 4.566-1.649 8.752-4.39 12.007l-2.031-11.717zm-36.591.215 5.462 5.265-1.983 11.431a18.569 18.569 0 0 1-4.153-11.721c0-1.723.234-3.39.674-4.975zm24.4-12.827c2.58.86 4.912 2.253 6.862 4.046l-5.218-.75zm-12.49.118-1.586 3.179-4.882.7a19.037 19.037 0 0 1 6.469-3.88zM74.758 60.043l11.218 5.832a19.062 19.062 0 0 1-11.076 3.52 19.062 19.062 0 0 1-11.196-3.606l11.054-5.746zm18.407-14.62c.479 1.648.735 3.39.735 5.19 0 4.566-1.649 8.752-4.39 12.007L87.48 50.903zm-36.591.215 5.462 5.265-1.983 11.431A18.569 18.569 0 0 1 55.9 50.613c0-1.723.234-3.39.674-4.975zm24.4-12.827c2.58.86 4.912 2.253 6.862 4.046l-5.218-.75zm-12.49.118-1.586 3.179-4.882.7a19.037 19.037 0 0 1 6.469-3.88zM74.758 212.043l11.218 5.832a19.062 19.062 0 0 1-11.076 3.52 19.062 19.062 0 0 1-11.196-3.606l11.054-5.746zm18.407-14.62c.479 1.648.735 3.39.735 5.19 0 4.566-1.649 8.752-4.39 12.007l-2.031-11.717zm-36.591.215 5.462 5.265-1.983 11.431a18.569 18.569 0 0 1-4.153-11.721c0-1.723.234-3.39.674-4.975zm24.4-12.827c2.58.86 4.912 2.253 6.862 4.046l-5.218-.75zm-12.49.118-1.586 3.179-4.882.7a19.037 19.037 0 0 1 6.469-3.88zM74.758 136.043l11.218 5.832a19.062 19.062 0 0 1-11.076 3.52 19.062 19.062 0 0 1-11.196-3.606l11.054-5.746zm18.407-14.62c.479 1.648.735 3.39.735 5.19 0 4.566-1.649 8.752-4.39 12.007l-2.031-11.717zm-36.591.215 5.462 5.265-1.983 11.431a18.569 18.569 0 0 1-4.153-11.721c0-1.723.234-3.39.674-4.975zm24.4-12.827c2.58.86 4.912 2.253 6.862 4.046l-5.218-.75zm-12.49.118-1.586 3.179-4.882.7a19.037 19.037 0 0 1 6.469-3.88zM74.758 288.043l11.218 5.832a19.062 19.062 0 0 1-11.076 3.52 19.062 19.062 0 0 1-11.196-3.606l11.054-5.746zm18.407-14.62c.479 1.648.735 3.39.735 5.19 0 4.566-1.649 8.752-4.39 12.007l-2.031-11.717zm-36.591.215 5.462 5.265-1.983 11.431a18.569 18.569 0 0 1-4.153-11.721c0-1.723.234-3.39.674-4.975zm24.4-12.827c2.58.86 4.912 2.253 6.862 4.046l-5.218-.75zm-12.49.118-1.586 3.179-4.882.7a19.037 19.037 0 0 1 6.469-3.88zM74.758 364.043l11.218 5.832a19.062 19.062 0 0 1-11.076 3.52 19.062 19.062 0 0 1-11.196-3.606l11.054-5.746zm18.407-14.62c.479 1.648.735 3.39.735 5.19 0 4.566-1.649 8.752-4.39 12.007l-2.031-11.717zm-36.591.215 5.462 5.265-1.983 11.431a18.569 18.569 0 0 1-4.153-11.721c0-1.723.234-3.39.674-4.975zm24.4-12.827c2.58.86 4.912 2.253 6.862 4.046l-5.218-.75zm-12.49.118-1.586 3.179-4.882.7a19.037 19.037 0 0 1 6.469-3.88zM74.758 98.043l11.218 5.832a19.062 19.062 0 0 1-11.076 3.52 19.062 19.062 0 0 1-11.196-3.606l11.054-5.746zm18.407-14.62c.479 1.648.735 3.39.735 5.19 0 4.566-1.649 8.752-4.39 12.007L87.48 88.903zm-36.591.215 5.462 5.265-1.983 11.431A18.569 18.569 0 0 1 55.9 88.613c0-1.723.234-3.39.674-4.975zm24.4-12.827c2.58.86 4.912 2.253 6.862 4.046l-5.218-.75zm-12.49.118-1.586 3.179-4.882.7a19.037 19.037 0 0 1 6.469-3.88zM74.758 250.043l11.218 5.832a19.062 19.062 0 0 1-11.076 3.52 19.062 19.062 0 0 1-11.196-3.606l11.054-5.746zm18.407-14.62c.479 1.648.735 3.39.735 5.19 0 4.566-1.649 8.752-4.39 12.007l-2.031-11.717zm-36.591.215 5.462 5.265-1.983 11.431a18.569 18.569 0 0 1-4.153-11.721c0-1.723.234-3.39.674-4.975zm24.4-12.827c2.58.86 4.912 2.253 6.862 4.046l-5.218-.75zm-12.49.118-1.586 3.179-4.882.7a19.037 19.037 0 0 1 6.469-3.88zM74.758 174.043l11.218 5.832a19.062 19.062 0 0 1-11.076 3.52 19.062 19.062 0 0 1-11.196-3.606l11.054-5.746zm18.407-14.62c.479 1.648.735 3.39.735 5.19 0 4.566-1.649 8.752-4.39 12.007l-2.031-11.717zm-36.591.215 5.462 5.265-1.983 11.431a18.569 18.569 0 0 1-4.153-11.721c0-1.723.234-3.39.674-4.975zm24.4-12.827c2.58.86 4.912 2.253 6.862 4.046l-5.218-.75zm-12.49.118-1.586 3.179-4.882.7a19.037 19.037 0 0 1 6.469-3.88zM74.758 326.043l11.218 5.832a19.062 19.062 0 0 1-11.076 3.52 19.062 19.062 0 0 1-11.196-3.606l11.054-5.746zm18.407-14.62c.479 1.648.735 3.39.735 5.19 0 4.566-1.649 8.752-4.39 12.007l-2.031-11.717zm-36.591.215 5.462 5.265-1.983 11.431a18.569 18.569 0 0 1-4.153-11.721c0-1.723.234-3.39.674-4.975zm24.4-12.827c2.58.86 4.912 2.253 6.862 4.046l-5.218-.75zm-12.49.118-1.586 3.179-4.882.7a19.037 19.037 0 0 1 6.469-3.88zM74.758 402.043l11.218 5.832a19.062 19.062 0 0 1-11.076 3.52 19.062 19.062 0 0 1-11.196-3.606l11.054-5.746zm18.407-14.62c.479 1.648.735 3.39.735 5.19 0 4.566-1.649 8.752-4.39 12.007l-2.031-11.717zm-36.591.215 5.462 5.265-1.983 11.431a18.569 18.569 0 0 1-4.153-11.721c0-1.723.234-3.39.674-4.975zm24.4-12.827c2.58.86 4.912 2.253 6.862 4.046l-5.218-.75zm-12.49.118-1.586 3.179-4.882.7a19.037 19.037 0 0 1 6.469-3.88zM74.758 440.043l11.218 5.832a19.062 19.062 0 0 1-11.076 3.52 19.062 19.062 0 0 1-11.196-3.606l11.054-5.746zm18.407-14.62c.479 1.648.735 3.39.735 5.19 0 4.566-1.649 8.752-4.39 12.007l-2.031-11.717zm-36.591.215 5.462 5.265-1.983 11.431a18.569 18.569 0 0 1-4.153-11.721c0-1.723.234-3.39.674-4.975zm24.4-12.827c2.58.86 4.912 2.253 6.862 4.046l-5.218-.75zm-12.49.118-1.586 3.179-4.882.7a19.037 19.037 0 0 1 6.469-3.88zM113.758 60.043l11.218 5.832a19.062 19.062 0 0 1-11.076 3.52 19.062 19.062 0 0 1-11.196-3.606l11.054-5.746zm18.407-14.62c.479 1.648.735 3.39.735 5.19 0 4.566-1.649 8.752-4.39 12.007l-2.031-11.717zm-36.591.215 5.462 5.265-1.983 11.431A18.569 18.569 0 0 1 94.9 50.613c0-1.723.234-3.39.674-4.975zm24.4-12.827c2.58.86 4.912 2.253 6.862 4.046l-5.218-.75zm-12.49.118-1.586 3.179-4.882.7a19.037 19.037 0 0 1 6.469-3.88zM113.758 212.043l11.218 5.832a19.062 19.062 0 0 1-11.076 3.52 19.062 19.062 0 0 1-11.196-3.606l11.054-5.746zm18.407-14.62c.479 1.648.735 3.39.735 5.19 0 4.566-1.649 8.752-4.39 12.007l-2.031-11.717zm-36.591.215 5.462 5.265-1.983 11.431a18.569 18.569 0 0 1-4.153-11.721c0-1.723.234-3.39.674-4.975zm24.4-12.827c2.58.86 4.912 2.253 6.862 4.046l-5.218-.75zm-12.49.118-1.586 3.179-4.882.7a19.037 19.037 0 0 1 6.469-3.88zM113.758 136.043l11.218 5.832a19.062 19.062 0 0 1-11.076 3.52 19.062 19.062 0 0 1-11.196-3.606l11.054-5.746zm18.407-14.62c.479 1.648.735 3.39.735 5.19 0 4.566-1.649 8.752-4.39 12.007l-2.031-11.717zm-36.591.215 5.462 5.265-1.983 11.431a18.569 18.569 0 0 1-4.153-11.721c0-1.723.234-3.39.674-4.975zm24.4-12.827c2.58.86 4.912 2.253 6.862 4.046l-5.218-.75zm-12.49.118-1.586 3.179-4.882.7a19.037 19.037 0 0 1 6.469-3.88zM113.758 288.043l11.218 5.832a19.062 19.062 0 0 1-11.076 3.52 19.062 19.062 0 0 1-11.196-3.606l11.054-5.746zm18.407-14.62c.479 1.648.735 3.39.735 5.19 0 4.566-1.649 8.752-4.39 12.007l-2.031-11.717zm-36.591.215 5.462 5.265-1.983 11.431a18.569 18.569 0 0 1-4.153-11.721c0-1.723.234-3.39.674-4.975zm24.4-12.827c2.58.86 4.912 2.253 6.862 4.046l-5.218-.75zm-12.49.118-1.586 3.179-4.882.7a19.037 19.037 0 0 1 6.469-3.88zM113.758 364.043l11.218 5.832a19.062 19.062 0 0 1-11.076 3.52 19.062 19.062 0 0 1-11.196-3.606l11.054-5.746zm18.407-14.62c.479 1.648.735 3.39.735 5.19 0 4.566-1.649 8.752-4.39 12.007l-2.031-11.717zm-36.591.215 5.462 5.265-1.983 11.431a18.569 18.569 0 0 1-4.153-11.721c0-1.723.234-3.39.674-4.975zm24.4-12.827c2.58.86 4.912 2.253 6.862 4.046l-5.218-.75zm-12.49.118-1.586 3.179-4.882.7a19.037 19.037 0 0 1 6.469-3.88zM113.758 98.043l11.218 5.832a19.062 19.062 0 0 1-11.076 3.52 19.062 19.062 0 0 1-11.196-3.606l11.054-5.746zm18.407-14.62c.479 1.648.735 3.39.735 5.19 0 4.566-1.649 8.752-4.39 12.007l-2.031-11.717zm-36.591.215 5.462 5.265-1.983 11.431A18.569 18.569 0 0 1 94.9 88.613c0-1.723.234-3.39.674-4.975zm24.4-12.827c2.58.86 4.912 2.253 6.862 4.046l-5.218-.75zm-12.49.118-1.586 3.179-4.882.7a19.037 19.037 0 0 1 6.469-3.88zM113.758 250.043l11.218 5.832a19.062 19.062 0 0 1-11.076 3.52 19.062 19.062 0 0 1-11.196-3.606l11.054-5.746zm18.407-14.62c.479 1.648.735 3.39.735 5.19 0 4.566-1.649 8.752-4.39 12.007l-2.031-11.717zm-36.591.215 5.462 5.265-1.983 11.431a18.569 18.569 0 0 1-4.153-11.721c0-1.723.234-3.39.674-4.975zm24.4-12.827c2.58.86 4.912 2.253 6.862 4.046l-5.218-.75zm-12.49.118-1.586 3.179-4.882.7a19.037 19.037 0 0 1 6.469-3.88zM113.758 174.043l11.218 5.832a19.062 19.062 0 0 1-11.076 3.52 19.062 19.062 0 0 1-11.196-3.606l11.054-5.746zm18.407-14.62c.479 1.648.735 3.39.735 5.19 0 4.566-1.649 8.752-4.39 12.007l-2.031-11.717zm-36.591.215 5.462 5.265-1.983 11.431a18.569 18.569 0 0 1-4.153-11.721c0-1.723.234-3.39.674-4.975zm24.4-12.827c2.58.86 4.912 2.253 6.862 4.046l-5.218-.75zm-12.49.118-1.586 3.179-4.882.7a19.037 19.037 0 0 1 6.469-3.88zM113.758 326.043l11.218 5.832a19.062 19.062 0 0 1-11.076 3.52 19.062 19.062 0 0 1-11.196-3.606l11.054-5.746zm18.407-14.62c.479 1.648.735 3.39.735 5.19 0 4.566-1.649 8.752-4.39 12.007l-2.031-11.717zm-36.591.215 5.462 5.265-1.983 11.431a18.569 18.569 0 0 1-4.153-11.721c0-1.723.234-3.39.674-4.975zm24.4-12.827c2.58.86 4.912 2.253 6.862 4.046l-5.218-.75zm-12.49.118-1.586 3.179-4.882.7a19.037 19.037 0 0 1 6.469-3.88zM113.758 402.043l11.218 5.832a19.062 19.062 0 0 1-11.076 3.52 19.062 19.062 0 0 1-11.196-3.606l11.054-5.746zm18.407-14.62c.479 1.648.735 3.39.735 5.19 0 4.566-1.649 8.752-4.39 12.007l-2.031-11.717zm-36.591.215 5.462 5.265-1.983 11.431a18.569 18.569 0 0 1-4.153-11.721c0-1.723.234-3.39.674-4.975zm24.4-12.827c2.58.86 4.912 2.253 6.862 4.046l-5.218-.75zm-12.49.118-1.586 3.179-4.882.7a19.037 19.037 0 0 1 6.469-3.88zM113.758 440.043l11.218 5.832a19.062 19.062 0 0 1-11.076 3.52 19.062 19.062 0 0 1-11.196-3.606l11.054-5.746zm18.407-14.62c.479 1.648.735 3.39.735 5.19 0 4.566-1.649 8.752-4.39 12.007l-2.031-11.717zm-36.591.215 5.462 5.265-1.983 11.431a18.569 18.569 0 0 1-4.153-11.721c0-1.723.234-3.39.674-4.975zm24.4-12.827c2.58.86 4.912 2.253 6.862 4.046l-5.218-.75zm-12.49.118-1.586 3.179-4.882.7a19.037 19.037 0 0 1 6.469-3.88zM152.758 60.043l11.218 5.832a19.062 19.062 0 0 1-11.076 3.52 19.062 19.062 0 0 1-11.196-3.606l11.054-5.746zm18.407-14.62c.479 1.648.735 3.39.735 5.19 0 4.566-1.649 8.752-4.39 12.007l-2.031-11.717zm-36.591.215 5.462 5.265-1.983 11.431a18.569 18.569 0 0 1-4.153-11.721c0-1.723.234-3.39.674-4.975zm24.4-12.827c2.58.86 4.912 2.253 6.862 4.046l-5.218-.75zm-12.49.118-1.586 3.179-4.882.7a19.037 19.037 0 0 1 6.469-3.88zM152.758 212.043l11.218 5.832a19.062 19.062 0 0 1-11.076 3.52 19.062 19.062 0 0 1-11.196-3.606l11.054-5.746zm18.407-14.62c.479 1.648.735 3.39.735 5.19 0 4.566-1.649 8.752-4.39 12.007l-2.031-11.717zm-36.591.215 5.462 5.265-1.983 11.431a18.569 18.569 0 0 1-4.153-11.721c0-1.723.234-3.39.674-4.975zm24.4-12.827c2.58.86 4.912 2.253 6.862 4.046l-5.218-.75zm-12.49.118-1.586 3.179-4.882.7a19.037 19.037 0 0 1 6.469-3.88zM152.758 136.043l11.218 5.832a19.062 19.062 0 0 1-11.076 3.52 19.062 19.062 0 0 1-11.196-3.606l11.054-5.746zm18.407-14.62c.479 1.648.735 3.39.735 5.19 0 4.566-1.649 8.752-4.39 12.007l-2.031-11.717zm-36.591.215 5.462 5.265-1.983 11.431a18.569 18.569 0 0 1-4.153-11.721c0-1.723.234-3.39.674-4.975zm24.4-12.827c2.58.86 4.912 2.253 6.862 4.046l-5.218-.75zm-12.49.118-1.586 3.179-4.882.7a19.037 19.037 0 0 1 6.469-3.88zM152.758 288.043l11.218 5.832a19.062 19.062 0 0 1-11.076 3.52 19.062 19.062 0 0 1-11.196-3.606l11.054-5.746zm18.407-14.62c.479 1.648.735 3.39.735 5.19 0 4.566-1.649 8.752-4.39 12.007l-2.031-11.717zm-36.591.215 5.462 5.265-1.983 11.431a18.569 18.569 0 0 1-4.153-11.721c0-1.723.234-3.39.674-4.975zm24.4-12.827c2.58.86 4.912 2.253 6.862 4.046l-5.218-.75zm-12.49.118-1.586 3.179-4.882.7a19.037 19.037 0 0 1 6.469-3.88zM152.758 364.043l11.218 5.832a19.062 19.062 0 0 1-11.076 3.52 19.062 19.062 0 0 1-11.196-3.606l11.054-5.746zm18.407-14.62c.479 1.648.735 3.39.735 5.19 0 4.566-1.649 8.752-4.39 12.007l-2.031-11.717zm-36.591.215 5.462 5.265-1.983 11.431a18.569 18.569 0 0 1-4.153-11.721c0-1.723.234-3.39.674-4.975zm24.4-12.827c2.58.86 4.912 2.253 6.862 4.046l-5.218-.75zm-12.49.118-1.586 3.179-4.882.7a19.037 19.037 0 0 1 6.469-3.88zM152.758 98.043l11.218 5.832a19.062 19.062 0 0 1-11.076 3.52 19.062 19.062 0 0 1-11.196-3.606l11.054-5.746zm18.407-14.62c.479 1.648.735 3.39.735 5.19 0 4.566-1.649 8.752-4.39 12.007l-2.031-11.717zm-36.591.215 5.462 5.265-1.983 11.431a18.569 18.569 0 0 1-4.153-11.721c0-1.723.234-3.39.674-4.975zm24.4-12.827c2.58.86 4.912 2.253 6.862 4.046l-5.218-.75zm-12.49.118-1.586 3.179-4.882.7a19.037 19.037 0 0 1 6.469-3.88zM152.758 250.043l11.218 5.832a19.062 19.062 0 0 1-11.076 3.52 19.062 19.062 0 0 1-11.196-3.606l11.054-5.746zm18.407-14.62c.479 1.648.735 3.39.735 5.19 0 4.566-1.649 8.752-4.39 12.007l-2.031-11.717zm-36.591.215 5.462 5.265-1.983 11.431a18.569 18.569 0 0 1-4.153-11.721c0-1.723.234-3.39.674-4.975zm24.4-12.827c2.58.86 4.912 2.253 6.862 4.046l-5.218-.75zm-12.49.118-1.586 3.179-4.882.7a19.037 19.037 0 0 1 6.469-3.88zM152.758 174.043l11.218 5.832a19.062 19.062 0 0 1-11.076 3.52 19.062 19.062 0 0 1-11.196-3.606l11.054-5.746zm18.407-14.62c.479 1.648.735 3.39.735 5.19 0 4.566-1.649 8.752-4.39 12.007l-2.031-11.717zm-36.591.215 5.462 5.265-1.983 11.431a18.569 18.569 0 0 1-4.153-11.721c0-1.723.234-3.39.674-4.975zm24.4-12.827c2.58.86 4.912 2.253 6.862 4.046l-5.218-.75zm-12.49.118-1.586 3.179-4.882.7a19.037 19.037 0 0 1 6.469-3.88zM152.758 326.043l11.218 5.832a19.062 19.062 0 0 1-11.076 3.52 19.062 19.062 0 0 1-11.196-3.606l11.054-5.746zm18.407-14.62c.479 1.648.735 3.39.735 5.19 0 4.566-1.649 8.752-4.39 12.007l-2.031-11.717zm-36.591.215 5.462 5.265-1.983 11.431a18.569 18.569 0 0 1-4.153-11.721c0-1.723.234-3.39.674-4.975zm24.4-12.827c2.58.86 4.912 2.253 6.862 4.046l-5.218-.75zm-12.49.118-1.586 3.179-4.882.7a19.037 19.037 0 0 1 6.469-3.88zM152.758 402.043l11.218 5.832a19.062 19.062 0 0 1-11.076 3.52 19.062 19.062 0 0 1-11.196-3.606l11.054-5.746zm18.407-14.62c.479 1.648.735 3.39.735 5.19 0 4.566-1.649 8.752-4.39 12.007l-2.031-11.717zm-36.591.215 5.462 5.265-1.983 11.431a18.569 18.569 0 0 1-4.153-11.721c0-1.723.234-3.39.674-4.975zm24.4-12.827c2.58.86 4.912 2.253 6.862 4.046l-5.218-.75zm-12.49.118-1.586 3.179-4.882.7a19.037 19.037 0 0 1 6.469-3.88zM152.758 440.043l11.218 5.832a19.062 19.062 0 0 1-11.076 3.52 19.062 19.062 0 0 1-11.196-3.606l11.054-5.746zm18.407-14.62c.479 1.648.735 3.39.735 5.19 0 4.566-1.649 8.752-4.39 12.007l-2.031-11.717zm-36.591.215 5.462 5.265-1.983 11.431a18.569 18.569 0 0 1-4.153-11.721c0-1.723.234-3.39.674-4.975zm24.4-12.827c2.58.86 4.912 2.253 6.862 4.046l-5.218-.75zm-12.49.118-1.586 3.179-4.882.7a19.037 19.037 0 0 1 6.469-3.88zM191.758 60.043l11.218 5.832a19.062 19.062 0 0 1-11.076 3.52 19.062 19.062 0 0 1-11.196-3.606l11.054-5.746zm18.407-14.62c.479 1.648.735 3.39.735 5.19 0 4.566-1.649 8.752-4.39 12.007l-2.031-11.717zm-36.591.215 5.462 5.265-1.983 11.431a18.569 18.569 0 0 1-4.153-11.721c0-1.723.234-3.39.674-4.975zm24.4-12.827c2.58.86 4.912 2.253 6.862 4.046l-5.218-.75zm-12.49.118-1.586 3.179-4.882.7a19.037 19.037 0 0 1 6.469-3.88zM191.758 212.043l11.218 5.832a19.062 19.062 0 0 1-11.076 3.52 19.062 19.062 0 0 1-11.196-3.606l11.054-5.746zm18.407-14.62c.479 1.648.735 3.39.735 5.19 0 4.566-1.649 8.752-4.39 12.007l-2.031-11.717zm-36.591.215 5.462 5.265-1.983 11.431a18.569 18.569 0 0 1-4.153-11.721c0-1.723.234-3.39.674-4.975zm24.4-12.827c2.58.86 4.912 2.253 6.862 4.046l-5.218-.75zm-12.49.118-1.586 3.179-4.882.7a19.037 19.037 0 0 1 6.469-3.88zM191.758 136.043l11.218 5.832a19.062 19.062 0 0 1-11.076 3.52 19.062 19.062 0 0 1-11.196-3.606l11.054-5.746zm18.407-14.62c.479 1.648.735 3.39.735 5.19 0 4.566-1.649 8.752-4.39 12.007l-2.031-11.717zm-36.591.215 5.462 5.265-1.983 11.431a18.569 18.569 0 0 1-4.153-11.721c0-1.723.234-3.39.674-4.975zm24.4-12.827c2.58.86 4.912 2.253 6.862 4.046l-5.218-.75zm-12.49.118-1.586 3.179-4.882.7a19.037 19.037 0 0 1 6.469-3.88zM191.758 288.043l11.218 5.832a19.062 19.062 0 0 1-11.076 3.52 19.062 19.062 0 0 1-11.196-3.606l11.054-5.746zm18.407-14.62c.479 1.648.735 3.39.735 5.19 0 4.566-1.649 8.752-4.39 12.007l-2.031-11.717zm-36.591.215 5.462 5.265-1.983 11.431a18.569 18.569 0 0 1-4.153-11.721c0-1.723.234-3.39.674-4.975zm24.4-12.827c2.58.86 4.912 2.253 6.862 4.046l-5.218-.75zm-12.49.118-1.586 3.179-4.882.7a19.037 19.037 0 0 1 6.469-3.88zM191.758 364.043l11.218 5.832a19.062 19.062 0 0 1-11.076 3.52 19.062 19.062 0 0 1-11.196-3.606l11.054-5.746zm18.407-14.62c.479 1.648.735 3.39.735 5.19 0 4.566-1.649 8.752-4.39 12.007l-2.031-11.717zm-36.591.215 5.462 5.265-1.983 11.431a18.569 18.569 0 0 1-4.153-11.721c0-1.723.234-3.39.674-4.975zm24.4-12.827c2.58.86 4.912 2.253 6.862 4.046l-5.218-.75zm-12.49.118-1.586 3.179-4.882.7a19.037 19.037 0 0 1 6.469-3.88zM191.758 98.043l11.218 5.832a19.062 19.062 0 0 1-11.076 3.52 19.062 19.062 0 0 1-11.196-3.606l11.054-5.746zm18.407-14.62c.479 1.648.735 3.39.735 5.19 0 4.566-1.649 8.752-4.39 12.007l-2.031-11.717zm-36.591.215 5.462 5.265-1.983 11.431a18.569 18.569 0 0 1-4.153-11.721c0-1.723.234-3.39.674-4.975zm24.4-12.827c2.58.86 4.912 2.253 6.862 4.046l-5.218-.75zm-12.49.118-1.586 3.179-4.882.7a19.037 19.037 0 0 1 6.469-3.88zM191.758 250.043l11.218 5.832a19.062 19.062 0 0 1-11.076 3.52 19.062 19.062 0 0 1-11.196-3.606l11.054-5.746zm18.407-14.62c.479 1.648.735 3.39.735 5.19 0 4.566-1.649 8.752-4.39 12.007l-2.031-11.717zm-36.591.215 5.462 5.265-1.983 11.431a18.569 18.569 0 0 1-4.153-11.721c0-1.723.234-3.39.674-4.975zm24.4-12.827c2.58.86 4.912 2.253 6.862 4.046l-5.218-.75zm-12.49.118-1.586 3.179-4.882.7a19.037 19.037 0 0 1 6.469-3.88zM191.758 174.043l11.218 5.832a19.062 19.062 0 0 1-11.076 3.52 19.062 19.062 0 0 1-11.196-3.606l11.054-5.746zm18.407-14.62c.479 1.648.735 3.39.735 5.19 0 4.566-1.649 8.752-4.39 12.007l-2.031-11.717zm-36.591.215 5.462 5.265-1.983 11.431a18.569 18.569 0 0 1-4.153-11.721c0-1.723.234-3.39.674-4.975zm24.4-12.827c2.58.86 4.912 2.253 6.862 4.046l-5.218-.75zm-12.49.118-1.586 3.179-4.882.7a19.037 19.037 0 0 1 6.469-3.88zM191.758 326.043l11.218 5.832a19.062 19.062 0 0 1-11.076 3.52 19.062 19.062 0 0 1-11.196-3.606l11.054-5.746zm18.407-14.62c.479 1.648.735 3.39.735 5.19 0 4.566-1.649 8.752-4.39 12.007l-2.031-11.717zm-36.591.215 5.462 5.265-1.983 11.431a18.569 18.569 0 0 1-4.153-11.721c0-1.723.234-3.39.674-4.975zm24.4-12.827c2.58.86 4.912 2.253 6.862 4.046l-5.218-.75zm-12.49.118-1.586 3.179-4.882.7a19.037 19.037 0 0 1 6.469-3.88zM191.758 402.043l11.218 5.832a19.062 19.062 0 0 1-11.076 3.52 19.062 19.062 0 0 1-11.196-3.606l11.054-5.746zm18.407-14.62c.479 1.648.735 3.39.735 5.19 0 4.566-1.649 8.752-4.39 12.007l-2.031-11.717zm-36.591.215 5.462 5.265-1.983 11.431a18.569 18.569 0 0 1-4.153-11.721c0-1.723.234-3.39.674-4.975zm24.4-12.827c2.58.86 4.912 2.253 6.862 4.046l-5.218-.75zm-12.49.118-1.586 3.179-4.882.7a19.037 19.037 0 0 1 6.469-3.88zM191.758 440.043l11.218 5.832a19.062 19.062 0 0 1-11.076 3.52 19.062 19.062 0 0 1-11.196-3.606l11.054-5.746zm18.407-14.62c.479 1.648.735 3.39.735 5.19 0 4.566-1.649 8.752-4.39 12.007l-2.031-11.717zm-36.591.215 5.462 5.265-1.983 11.431a18.569 18.569 0 0 1-4.153-11.721c0-1.723.234-3.39.674-4.975zm24.4-12.827c2.58.86 4.912 2.253 6.862 4.046l-5.218-.75zm-12.49.118-1.586 3.179-4.882.7a19.037 19.037 0 0 1 6.469-3.88zM231.254 60.04l11.513 5.835c-3.201 2.216-7.126 3.52-11.367 3.52-4.295 0-8.266-1.338-11.49-3.605l11.344-5.75zm18.887-14.633c.494 1.653.759 3.4.759 5.206 0 4.577-1.7 8.77-4.523 12.028l-2.088-11.735zm-37.545.215 5.623 5.284-2.038 11.45c-2.678-3.215-4.281-7.298-4.281-11.743 0-1.728.242-3.402.696-4.99zm25.017-12.817a19.653 19.653 0 0 1 7.067 4.055l-5.377-.754zm-12.779.117-1.63 3.184-5.03.705a19.645 19.645 0 0 1 6.66-3.889zM231.254 212.04l11.513 5.835c-3.201 2.216-7.126 3.52-11.367 3.52-4.295 0-8.266-1.338-11.49-3.605l11.344-5.75zm18.887-14.633c.494 1.653.759 3.4.759 5.206 0 4.577-1.7 8.77-4.523 12.028l-2.088-11.735zm-37.545.215 5.623 5.284-2.038 11.45c-2.678-3.215-4.281-7.298-4.281-11.743 0-1.728.242-3.402.696-4.99zm25.017-12.817a19.653 19.653 0 0 1 7.067 4.055l-5.377-.754zm-12.779.117-1.63 3.184-5.03.705a19.645 19.645 0 0 1 6.66-3.889zM231.254 136.04l11.513 5.835c-3.201 2.216-7.126 3.52-11.367 3.52-4.295 0-8.266-1.338-11.49-3.605l11.344-5.75zm18.887-14.633c.494 1.653.759 3.4.759 5.206 0 4.577-1.7 8.77-4.523 12.028l-2.088-11.735zm-37.545.215 5.623 5.284-2.038 11.45c-2.678-3.215-4.281-7.298-4.281-11.743 0-1.728.242-3.402.696-4.99zm25.017-12.817a19.653 19.653 0 0 1 7.067 4.055l-5.377-.754zm-12.779.117-1.63 3.184-5.03.705a19.645 19.645 0 0 1 6.66-3.889zM231.254 288.04l11.513 5.835c-3.201 2.216-7.126 3.52-11.367 3.52-4.295 0-8.266-1.338-11.49-3.605l11.344-5.75zm18.887-14.633c.494 1.653.759 3.4.759 5.206 0 4.577-1.7 8.77-4.523 12.028l-2.088-11.735zm-37.545.215 5.623 5.284-2.038 11.45c-2.678-3.215-4.281-7.298-4.281-11.743 0-1.728.242-3.402.696-4.99zm25.017-12.817a19.653 19.653 0 0 1 7.067 4.055l-5.377-.754zm-12.779.117-1.63 3.184-5.03.705a19.645 19.645 0 0 1 6.66-3.889zM231.254 364.04l11.513 5.835c-3.201 2.216-7.126 3.52-11.367 3.52-4.295 0-8.266-1.338-11.49-3.605l11.344-5.75zm18.887-14.633c.494 1.653.759 3.4.759 5.206 0 4.577-1.7 8.77-4.523 12.028l-2.088-11.735zm-37.545.215 5.623 5.284-2.038 11.45c-2.678-3.215-4.281-7.298-4.281-11.743 0-1.728.242-3.402.696-4.99zm25.017-12.817a19.653 19.653 0 0 1 7.067 4.055l-5.377-.754zm-12.779.117-1.63 3.184-5.03.705a19.645 19.645 0 0 1 6.66-3.889zM231.254 98.04l11.513 5.835c-3.201 2.216-7.126 3.52-11.367 3.52-4.295 0-8.266-1.338-11.49-3.605l11.344-5.75zm18.887-14.633c.494 1.653.759 3.4.759 5.206 0 4.577-1.7 8.77-4.523 12.028l-2.088-11.735zm-37.545.215 5.623 5.284-2.038 11.45c-2.678-3.215-4.281-7.298-4.281-11.743 0-1.728.242-3.402.696-4.99zm25.017-12.817a19.653 19.653 0 0 1 7.067 4.055l-5.377-.754zm-12.779.117-1.63 3.184-5.03.705a19.645 19.645 0 0 1 6.66-3.889zM231.254 250.04l11.513 5.835c-3.201 2.216-7.126 3.52-11.367 3.52-4.295 0-8.266-1.338-11.49-3.605l11.344-5.75zm18.887-14.633c.494 1.653.759 3.4.759 5.206 0 4.577-1.7 8.77-4.523 12.028l-2.088-11.735zm-37.545.215 5.623 5.284-2.038 11.45c-2.678-3.215-4.281-7.298-4.281-11.743 0-1.728.242-3.402.696-4.99zm25.017-12.817a19.653 19.653 0 0 1 7.067 4.055l-5.377-.754zm-12.779.117-1.63 3.184-5.03.705a19.645 19.645 0 0 1 6.66-3.889zM231.254 174.04l11.513 5.835c-3.201 2.216-7.126 3.52-11.367 3.52-4.295 0-8.266-1.338-11.49-3.605l11.344-5.75zm18.887-14.633c.494 1.653.759 3.4.759 5.206 0 4.577-1.7 8.77-4.523 12.028l-2.088-11.735zm-37.545.215 5.623 5.284-2.038 11.45c-2.678-3.215-4.281-7.298-4.281-11.743 0-1.728.242-3.402.696-4.99zm25.017-12.817a19.653 19.653 0 0 1 7.067 4.055l-5.377-.754zm-12.779.117-1.63 3.184-5.03.705a19.645 19.645 0 0 1 6.66-3.889zM231.254 326.04l11.513 5.835c-3.201 2.216-7.126 3.52-11.367 3.52-4.295 0-8.266-1.338-11.49-3.605l11.344-5.75zm18.887-14.633c.494 1.653.759 3.4.759 5.206 0 4.577-1.7 8.77-4.523 12.028l-2.088-11.735zm-37.545.215 5.623 5.284-2.038 11.45c-2.678-3.215-4.281-7.298-4.281-11.743 0-1.728.242-3.402.696-4.99zm25.017-12.817a19.653 19.653 0 0 1 7.067 4.055l-5.377-.754zm-12.779.117-1.63 3.184-5.03.705a19.645 19.645 0 0 1 6.66-3.889zM231.254 402.04l11.513 5.835c-3.201 2.216-7.126 3.52-11.367 3.52-4.295 0-8.266-1.338-11.49-3.605l11.344-5.75zm18.887-14.633c.494 1.653.759 3.4.759 5.206 0 4.577-1.7 8.77-4.523 12.028l-2.088-11.735zm-37.545.215 5.623 5.284-2.038 11.45c-2.678-3.215-4.281-7.298-4.281-11.743 0-1.728.242-3.402.696-4.99zm25.017-12.817a19.653 19.653 0 0 1 7.067 4.055l-5.377-.754zm-12.779.117-1.63 3.184-5.03.705a19.645 19.645 0 0 1 6.66-3.889zM231.254 440.04l11.513 5.835c-3.201 2.216-7.126 3.52-11.367 3.52-4.295 0-8.266-1.338-11.49-3.605l11.344-5.75zm18.887-14.633c.494 1.653.759 3.4.759 5.206 0 4.577-1.7 8.77-4.523 12.028l-2.088-11.735zm-37.545.215 5.623 5.284-2.038 11.45c-2.678-3.215-4.281-7.298-4.281-11.743 0-1.728.242-3.402.696-4.99zm25.017-12.817a19.653 19.653 0 0 1 7.067 4.055l-5.377-.754zm-12.779.117-1.63 3.184-5.03.705a19.645 19.645 0 0 1 6.66-3.889zM270.758 60.043l11.218 5.832a19.062 19.062 0 0 1-11.076 3.52 19.062 19.062 0 0 1-11.196-3.606l11.054-5.746zm18.407-14.62c.479 1.648.735 3.39.735 5.19 0 4.566-1.649 8.752-4.39 12.007l-2.031-11.717zm-36.591.215 5.462 5.265-1.983 11.431a18.569 18.569 0 0 1-4.153-11.721c0-1.723.234-3.39.674-4.975zm24.4-12.827c2.58.86 4.912 2.253 6.862 4.046l-5.218-.75zm-12.49.118-1.586 3.179-4.882.7a19.037 19.037 0 0 1 6.469-3.88zM270.758 212.043l11.218 5.832a19.062 19.062 0 0 1-11.076 3.52 19.062 19.062 0 0 1-11.196-3.606l11.054-5.746zm18.407-14.62c.479 1.648.735 3.39.735 5.19 0 4.566-1.649 8.752-4.39 12.007l-2.031-11.717zm-36.591.215 5.462 5.265-1.983 11.431a18.569 18.569 0 0 1-4.153-11.721c0-1.723.234-3.39.674-4.975zm24.4-12.827c2.58.86 4.912 2.253 6.862 4.046l-5.218-.75zm-12.49.118-1.586 3.179-4.882.7a19.037 19.037 0 0 1 6.469-3.88zM270.758 136.043l11.218 5.832a19.062 19.062 0 0 1-11.076 3.52 19.062 19.062 0 0 1-11.196-3.606l11.054-5.746zm18.407-14.62c.479 1.648.735 3.39.735 5.19 0 4.566-1.649 8.752-4.39 12.007l-2.031-11.717zm-36.591.215 5.462 5.265-1.983 11.431a18.569 18.569 0 0 1-4.153-11.721c0-1.723.234-3.39.674-4.975zm24.4-12.827c2.58.86 4.912 2.253 6.862 4.046l-5.218-.75zm-12.49.118-1.586 3.179-4.882.7a19.037 19.037 0 0 1 6.469-3.88zM270.758 288.043l11.218 5.832a19.062 19.062 0 0 1-11.076 3.52 19.062 19.062 0 0 1-11.196-3.606l11.054-5.746zm18.407-14.62c.479 1.648.735 3.39.735 5.19 0 4.566-1.649 8.752-4.39 12.007l-2.031-11.717zm-36.591.215 5.462 5.265-1.983 11.431a18.569 18.569 0 0 1-4.153-11.721c0-1.723.234-3.39.674-4.975zm24.4-12.827c2.58.86 4.912 2.253 6.862 4.046l-5.218-.75zm-12.49.118-1.586 3.179-4.882.7a19.037 19.037 0 0 1 6.469-3.88zM270.758 364.043l11.218 5.832a19.062 19.062 0 0 1-11.076 3.52 19.062 19.062 0 0 1-11.196-3.606l11.054-5.746zm18.407-14.62c.479 1.648.735 3.39.735 5.19 0 4.566-1.649 8.752-4.39 12.007l-2.031-11.717zm-36.591.215 5.462 5.265-1.983 11.431a18.569 18.569 0 0 1-4.153-11.721c0-1.723.234-3.39.674-4.975zm24.4-12.827c2.58.86 4.912 2.253 6.862 4.046l-5.218-.75zm-12.49.118-1.586 3.179-4.882.7a19.037 19.037 0 0 1 6.469-3.88zM270.758 98.043l11.218 5.832a19.062 19.062 0 0 1-11.076 3.52 19.062 19.062 0 0 1-11.196-3.606l11.054-5.746zm18.407-14.62c.479 1.648.735 3.39.735 5.19 0 4.566-1.649 8.752-4.39 12.007l-2.031-11.717zm-36.591.215 5.462 5.265-1.983 11.431a18.569 18.569 0 0 1-4.153-11.721c0-1.723.234-3.39.674-4.975zm24.4-12.827c2.58.86 4.912 2.253 6.862 4.046l-5.218-.75zm-12.49.118-1.586 3.179-4.882.7a19.037 19.037 0 0 1 6.469-3.88zM270.758 250.043l11.218 5.832a19.062 19.062 0 0 1-11.076 3.52 19.062 19.062 0 0 1-11.196-3.606l11.054-5.746zm18.407-14.62c.479 1.648.735 3.39.735 5.19 0 4.566-1.649 8.752-4.39 12.007l-2.031-11.717zm-36.591.215 5.462 5.265-1.983 11.431a18.569 18.569 0 0 1-4.153-11.721c0-1.723.234-3.39.674-4.975zm24.4-12.827c2.58.86 4.912 2.253 6.862 4.046l-5.218-.75zm-12.49.118-1.586 3.179-4.882.7a19.037 19.037 0 0 1 6.469-3.88zM270.758 174.043l11.218 5.832a19.062 19.062 0 0 1-11.076 3.52 19.062 19.062 0 0 1-11.196-3.606l11.054-5.746zm18.407-14.62c.479 1.648.735 3.39.735 5.19 0 4.566-1.649 8.752-4.39 12.007l-2.031-11.717zm-36.591.215 5.462 5.265-1.983 11.431a18.569 18.569 0 0 1-4.153-11.721c0-1.723.234-3.39.674-4.975zm24.4-12.827c2.58.86 4.912 2.253 6.862 4.046l-5.218-.75zm-12.49.118-1.586 3.179-4.882.7a19.037 19.037 0 0 1 6.469-3.88zM270.758 326.043l11.218 5.832a19.062 19.062 0 0 1-11.076 3.52 19.062 19.062 0 0 1-11.196-3.606l11.054-5.746zm18.407-14.62c.479 1.648.735 3.39.735 5.19 0 4.566-1.649 8.752-4.39 12.007l-2.031-11.717zm-36.591.215 5.462 5.265-1.983 11.431a18.569 18.569 0 0 1-4.153-11.721c0-1.723.234-3.39.674-4.975zm24.4-12.827c2.58.86 4.912 2.253 6.862 4.046l-5.218-.75zm-12.49.118-1.586 3.179-4.882.7a19.037 19.037 0 0 1 6.469-3.88zM270.758 402.043l11.218 5.832a19.062 19.062 0 0 1-11.076 3.52 19.062 19.062 0 0 1-11.196-3.606l11.054-5.746zm18.407-14.62c.479 1.648.735 3.39.735 5.19 0 4.566-1.649 8.752-4.39 12.007l-2.031-11.717zm-36.591.215 5.462 5.265-1.983 11.431a18.569 18.569 0 0 1-4.153-11.721c0-1.723.234-3.39.674-4.975zm24.4-12.827c2.58.86 4.912 2.253 6.862 4.046l-5.218-.75zm-12.49.118-1.586 3.179-4.882.7a19.037 19.037 0 0 1 6.469-3.88zM270.758 440.043l11.218 5.832a19.062 19.062 0 0 1-11.076 3.52 19.062 19.062 0 0 1-11.196-3.606l11.054-5.746zm18.407-14.62c.479 1.648.735 3.39.735 5.19 0 4.566-1.649 8.752-4.39 12.007l-2.031-11.717zm-36.591.215 5.462 5.265-1.983 11.431a18.569 18.569 0 0 1-4.153-11.721c0-1.723.234-3.39.674-4.975zm24.4-12.827c2.58.86 4.912 2.253 6.862 4.046l-5.218-.75zm-12.49.118-1.586 3.179-4.882.7a19.037 19.037 0 0 1 6.469-3.88z" />
        </g>
        <g>
            <path d="M154.5 125.354 212.323 241 154.5 356.646 96.677 241 154.5 125.354z" stroke="#B41D1D"
                stroke-width="3" fill="#DE3939" />
            <g transform="translate(148 162)" fill="#FFF">
                <ellipse cx="6.5" cy="19" rx="6.5" ry="19" />
                <ellipse cx="6.5" cy="139" rx="6.5" ry="19" />
            </g>
            <g transform="rotate(90 -18 216.5)" fill="#FFF">
                <ellipse cx="7" cy="11" rx="6.5" ry="10.5" />
                <ellipse cx="7" cy="77" rx="6.5" ry="10.5" />
            </g>
        </g>
    </g>
</svg>