<?xml version="1.0" encoding="UTF-8" standalone="no"?>
<svg
   xmlns:dc="http://purl.org/dc/elements/1.1/"
   xmlns:cc="http://creativecommons.org/ns#"
   xmlns:rdf="http://www.w3.org/1999/02/22-rdf-syntax-ns#"
   xmlns:svg="http://www.w3.org/2000/svg"
   xmlns="http://www.w3.org/2000/svg"
   xmlns:sodipodi="http://sodipodi.sourceforge.net/DTD/sodipodi-0.dtd"
   xmlns:inkscape="http://www.inkscape.org/namespaces/inkscape"
   version="1.1"
   x="0"
   y="0"
   width="417.91211"
   height="390"
   viewBox="0 0 417.91212 390"
   id="svg7811"
   inkscape:version="0.91 r13725"
   sodipodi:docname="fun-1303947-colourremix.svg">
  <metadata
     id="metadata7862">
    <rdf:RDF>
      <cc:Work
         rdf:about="">
        <dc:format>image/svg+xml</dc:format>
        <dc:type
           rdf:resource="http://purl.org/dc/dcmitype/StillImage" />
        <dc:title></dc:title>
        <dc:description>colour remix by j4p4n</dc:description>
        <cc:license
           rdf:resource="http://creativecommons.org/publicdomain/zero/1.0/" />
      </cc:Work>
      <cc:License
         rdf:about="http://creativecommons.org/publicdomain/zero/1.0/">
        <cc:permits
           rdf:resource="http://creativecommons.org/ns#Reproduction" />
        <cc:permits
           rdf:resource="http://creativecommons.org/ns#Distribution" />
        <cc:permits
           rdf:resource="http://creativecommons.org/ns#DerivativeWorks" />
      </cc:License>
    </rdf:RDF>
  </metadata>
  <defs
     id="defs7860" />
  <sodipodi:namedview
     pagecolor="#ffffff"
     bordercolor="#666666"
     borderopacity="1"
     objecttolerance="10"
     gridtolerance="10"
     guidetolerance="10"
     inkscape:pageopacity="0"
     inkscape:pageshadow="2"
     inkscape:window-width="1916"
     inkscape:window-height="1035"
     id="namedview7858"
     showgrid="false"
     fit-margin-top="0"
     fit-margin-left="0"
     fit-margin-right="0"
     fit-margin-bottom="0"
     inkscape:zoom="0.79360049"
     inkscape:cx="79.516746"
     inkscape:cy="6.9144837"
     inkscape:window-x="4"
     inkscape:window-y="1"
     inkscape:window-maximized="1"
     inkscape:current-layer="Layer_1" />
  <g
     id="Layer_1"
     transform="translate(1.2380031e-4,2.300999)">
    <g
       id="g8404">
      <path
         id="path32936"
         d="m 3.376,386.687 c -2.405,-1.466 -3.882,-5.002 -3.216,-7.7 0.277,-1.119 1.872,-7.322 3.545,-13.784 3.552,-13.721 6.33,-26.072 8.771,-39 1.926,-10.199 5.309,-31.683 5.309,-33.714 l 0,-1.291 -5.625,0.302 c -5.276,0.283 -5.762,0.228 -7.823,-0.885 -2.857,-1.544 -4.186,-3.898 -3.901,-6.912 0.171,-1.8 1.28,-3.953 5.541,-10.75 10.425,-16.632 14.283,-25.65 15.521,-36.277 0.929,-7.98 0.96,-8.012 11.423,-11.946 13.228,-4.974 25.541,-10.401 38.614,-17.02 39.049,-19.771 71.015,-43.341 119.821,-88.349 l 8.821,-8.135 0.312,-4.387 c 0.171,-2.412 0.656,-11.361 1.078,-19.886 0.421,-8.525 1.399,-27.763 2.174,-42.75 l 1.407,-27.25 -1.047,-1.489 c -0.74,-1.053 -1.102,-2.477 -1.237,-4.861 -0.165,-2.931 -0.02,-3.664 1.111,-5.593 3.191,-5.446 10.696,-6.666 15.317,-2.492 2.462,2.225 3.493,4.484 3.493,7.655 0,2.465 -1.319,6.05 -2.493,6.775 -0.581,0.359 -0.651,3.902 -0.186,9.402 l 0.321,3.798 2.804,0.288 c 5.805,0.596 11.391,1.875 14.052,3.218 3.606,1.821 5.002,3.868 5.002,7.334 0,2.097 0.261,2.948 1.273,4.151 3.157,3.751 10.958,5.615 19.284,4.605 2.747,-0.333 6.052,-0.926 7.344,-1.318 3.229,-0.98 3.956,-0.912 5.372,0.504 2.085,2.085 1.675,3.824 -1.696,7.196 -3.686,3.686 -6.565,5.667 -11.794,8.117 -5.278,2.474 -11.432,3.952 -16.475,3.956 -7.672,0.007 -10.288,-1.782 -10.767,-7.362 l -0.291,-3.384 -2.624,-0.152 c -2.679,-0.154 -9.497,0.606 -10.006,1.115 -0.155,0.155 0.249,12.369 0.898,27.143 l 1.181,26.862 5.614,6.016 c 5.811,6.226 21.2,20.895 29.937,28.536 36.808,32.191 77.98,56.992 127.5,76.803 5.5,2.2 10.417,4.377 10.926,4.837 1.492,1.349 2.165,3.123 2.509,6.612 0.62,6.302 2.735,12.298 9.076,25.728 3.59,7.604 6.455,14.759 7.457,18.627 2.208,8.522 -0.69,12.089 -9.843,12.112 -3.161,0.008 -4.375,0.184 -4.375,0.636 10e-4,0.343 0.35,3.662 0.778,7.375 2.945,25.607 6.863,48.67 12.278,72.283 l 2.071,9.034 -1.029,2.328 c -0.64,1.445 -1.659,2.711 -2.689,3.339 -1.658,1.011 -1.769,1.012 -205.409,1.012 -203.64,0 -203.751,-0.001 -205.409,-1.012 z"
         inkscape:connector-curvature="0"
         style="fill:#000000" />
      <path
         style="fill:#d40000"
         id="path32934"
         d="m 29.412,360.578 c 2.107,-10.794 6.311,-32.323 9.343,-47.843 3.031,-15.519 5.442,-28.287 5.357,-28.372 -0.085,-0.084 -1.544,0.391 -3.242,1.056 -2.887,1.132 -10.098,3.315 -13.21,4 -1.083,0.238 -1.375,0.587 -1.375,1.644 0,3.997 -5.376,35.245 -8.798,51.14 -1.933,8.978 -7.269,30.512 -8.703,35.125 l -0.894,2.875 8.846,0 8.846,0 z"
         inkscape:connector-curvature="0" />
      <path
         id="path32932"
         d="m 62.006,378.578 c 0.147,-0.894 1.724,-13.438 3.504,-27.875 1.78,-14.438 4.166,-33.786 5.302,-42.996 1.943,-15.757 2.013,-16.775 1.191,-17.25 -4.507,-2.604 -8.817,-5.981 -11.813,-9.257 l -3.595,-3.93 -1.28,0.897 c -0.704,0.493 -3.024,1.849 -5.155,3.012 -2.131,1.163 -3.875,2.227 -3.875,2.366 0,0.237 -1.962,10.307 -12.254,62.908 -2.314,11.825 -4.742,24.256 -5.396,27.625 l -1.188,6.125 17.146,0 17.146,0 z"
         inkscape:connector-curvature="0"
         style="fill:#ffffff" />
      <path
         style="fill:#d40000"
         id="path32930"
         d="m 97.278,379.828 c -0.003,-0.207 2.727,-22.939 6.068,-50.516 3.34,-27.578 5.941,-50.274 5.779,-50.436 -0.162,-0.162 -1.823,1.095 -3.692,2.794 -4.286,3.895 -9.27,7.246 -13.08,8.794 -5.259,2.137 -11.729,2.632 -16.162,1.236 -1.558,-0.491 -1.567,-0.468 -2.391,6.503 -0.276,2.337 -2.642,21.514 -5.259,42.616 -2.616,21.101 -4.756,38.595 -4.756,38.875 0,0.335 5.718,0.509 16.75,0.509 9.212,0 16.747,-0.169 16.743,-0.375 z"
         inkscape:connector-curvature="0" />
      <path
         id="path32928"
         d="m 112.785,379.548 c 0,-0.36 2.363,-2.852 5.251,-5.538 6.449,-5.997 17.334,-17.987 24.945,-27.479 l 5.701,-7.111 0.553,-22.984 c 0.304,-12.641 0.552,-24.504 0.551,-26.363 l -0.001,-3.379 -2.625,1.462 c -10.706,5.962 -23.34,4.306 -32.857,-4.306 -1.684,-1.524 -3.13,-2.687 -3.215,-2.584 -0.084,0.103 -2.836,22.405 -6.115,49.562 l -5.963,49.375 6.887,0 c 5.343,0 6.888,-0.147 6.888,-0.655 z"
         inkscape:connector-curvature="0"
         style="fill:#ffffff" />
      <path
         style="fill:#f2f2f2"
         id="path32926"
         d="m 145.951,375.295 c 16.128,-24.854 31.39,-52.876 44.272,-81.286 l 1.555,-3.43 -1.559,0.312 c -0.858,0.171 -2.712,0.313 -4.122,0.314 l -2.562,0.002 -2.372,4.661 c -5.312,10.442 -15.892,27.147 -25.368,40.056 -10.22,13.924 -18.902,24.158 -30.458,35.904 l -8.239,8.375 12.834,0 12.834,0 3.185,-4.908 z"
         inkscape:connector-curvature="0" />
      <path
         style="fill:#f2f2f2"
         id="path32924"
         d="m 297.152,371.828 c -15.137,-15.275 -27.045,-30.159 -41.103,-51.375 -6.143,-9.27 -14.931,-23.572 -17.091,-27.813 -0.884,-1.736 -1.059,-1.825 -4.142,-2.115 -1.77,-0.166 -3.262,-0.25 -3.317,-0.187 -0.054,0.063 2.189,4.952 4.985,10.865 11.512,24.344 26.364,48.95 42.053,69.674 3.299,4.357 6.222,8.238 6.495,8.624 0.399,0.562 2.477,0.702 10.459,0.702 l 9.961,0 z"
         inkscape:connector-curvature="0" />
      <path
         style="fill:#d40000"
         id="path32922"
         d="m 320.267,371.828 c -2.277,-7.968 -5.728,-20.16 -17.728,-62.625 -2.914,-10.313 -5.408,-19.12 -5.542,-19.571 -0.224,-0.75 -0.462,-0.738 -2.757,0.134 -8.049,3.058 -18.382,0.856 -27.177,-5.79 -1.635,-1.235 -3.051,-2.167 -3.147,-2.071 -0.097,0.097 1.772,12.624 4.152,27.84 l 4.329,27.664 2.879,3.772 c 4.976,6.519 23.783,27.526 29.899,33.396 l 5.86,5.625 5.813,0 5.813,10e-4 z"
         inkscape:connector-curvature="0" />
      <path
         id="path32920"
         d="m 356.782,379.328 c -10e-4,-0.482 -2.926,-20.327 -6.5,-44.101 -3.573,-23.774 -6.497,-43.389 -6.497,-43.59 0,-0.201 -0.73,-0.155 -1.622,0.101 -2.835,0.813 -10.013,0.551 -13.35,-0.488 -4.527,-1.409 -9.694,-4.704 -14.28,-9.106 l -4.068,-3.906 -2.715,2.77 c -1.493,1.523 -4.121,3.7 -5.84,4.838 -1.719,1.138 -3.125,2.374 -3.125,2.747 0,0.373 2.69,10.169 5.978,21.769 16.036,56.569 18.489,65.261 19.044,67.466 l 0.597,2.375 16.19,0 c 15.087,0 16.191,-0.06 16.188,-0.875 z"
         inkscape:connector-curvature="0"
         style="fill:#ffffff" />
      <path
         style="fill:#d40000"
         id="path32918"
         d="m 404.285,380.013 c 0,-0.105 -2.15,-9.273 -4.777,-20.375 -2.627,-11.102 -7.348,-31.098 -10.491,-44.435 -3.142,-13.338 -5.823,-24.709 -5.956,-25.27 -0.171,-0.721 -1.394,-1.49 -4.169,-2.625 -4.436,-1.814 -8.607,-4.237 -13.369,-7.767 l -3.254,-2.411 -4.367,4.48 c -4.05,4.156 -8.424,7.474 -11.286,8.562 -1.13,0.429 -1.17,0.592 -0.774,3.117 0.684,4.364 12.943,86.493 12.943,86.712 0,0.111 10.237,0.202 22.75,0.202 12.512,0 22.75,-0.086 22.75,-0.19 z"
         inkscape:connector-curvature="0" />
      <path
         id="path32916"
         d="M 409.717,374.168 C 404.33,351.47 399.648,323.051 396.53,294.125 l -0.305,-2.828 -4.336,-0.615 c -2.384,-0.339 -4.959,-0.794 -5.721,-1.013 -1.249,-0.358 -1.36,-0.29 -1.132,0.693 0.281,1.216 6.392,27.116 11.818,50.091 1.948,8.25 4.764,20.175 6.258,26.5 1.494,6.325 2.834,11.893 2.978,12.375 0.202,0.675 0.81,0.875 2.661,0.875 l 2.398,0 z"
         inkscape:connector-curvature="0"
         style="fill:#ffffff" />
      <path
         style="fill:#d40000"
         id="path32914"
         d="m 154.88,330.953 c 7.822,-10.92 17.016,-25.475 22.349,-35.378 2.353,-4.369 2.532,-4.909 1.716,-5.191 -6.85,-2.364 -11.037,-4.788 -15.712,-9.097 l -3.434,-3.165 -3.945,3.579 -3.945,3.58 -0.306,7.836 c -0.656,16.795 -0.927,43.335 -0.436,42.836 0.269,-0.275 1.941,-2.525 3.713,-5 z"
         inkscape:connector-curvature="0" />
      <path
         id="path32912"
         d="m 266.508,311.634 c -1.827,-11.65 -3.707,-23.715 -4.177,-26.811 -0.471,-3.097 -1.118,-5.893 -1.439,-6.213 -0.444,-0.444 -1.272,0.071 -3.47,2.156 -1.588,1.507 -3.95,3.466 -5.249,4.353 -2.869,1.96 -8.313,4.583 -9.513,4.583 -0.481,0 -0.875,0.135 -0.875,0.3 0,1.069 12.283,20.964 19.864,32.174 7.412,10.961 7.842,11.551 8.034,11.037 0.081,-0.218 -1.348,-9.929 -3.175,-21.579 z"
         inkscape:connector-curvature="0"
         style="fill:#ffffff" />
      <path
         style="fill:#d40000"
         id="path32910"
         d="m 91.285,285.37 c 5.354,-2.472 12.947,-9.287 17.635,-15.827 0.597,-0.832 0.818,-0.665 2.633,1.988 2.707,3.957 8.953,10.07 12.343,12.08 4.755,2.819 9.932,3.725 14.589,2.552 l 2.142,-0.539 0.328,-11.586 c 0.18,-6.372 0.328,-14.77 0.329,-18.662 l 0.001,-7.077 -5.125,-0.297 c -22.326,-1.291 -40.884,-2.538 -53.561,-3.597 -8.214,-0.687 -14.999,-1.182 -15.077,-1.1 -0.078,0.081 -1.187,7.077 -2.463,15.547 l -2.32,15.399 1.466,1.851 c 3.71,4.682 8.872,8.732 13.08,10.261 3.649,1.328 9.94,0.881 14,-0.993 z"
         inkscape:connector-curvature="0" />
      <path
         style="fill:#d40000"
         id="path32908"
         d="m 344.451,285.483 c 3.76,-1.795 8.011,-5.351 11.181,-9.353 l 2.516,-3.177 -2.363,-14.89 c -1.3,-8.19 -2.506,-15.033 -2.681,-15.208 -0.175,-0.175 -5.662,0.169 -12.193,0.765 -21.442,1.954 -51.526,4.083 -57.707,4.083 -1.848,0 -3.452,0.168 -3.565,0.375 -0.152,0.277 2.908,37.092 3.111,37.434 0.236,0.397 4.799,0.514 6.872,0.176 5.989,-0.974 13.374,-6.318 18.9,-13.674 1.368,-1.821 2.605,-3.301 2.75,-3.287 0.144,0.013 1.163,1.284 2.263,2.825 4.639,6.496 11.982,12.696 17.386,14.678 3.875,1.421 9.655,1.102 13.53,-0.747 z"
         inkscape:connector-curvature="0" />
      <path
         style="fill:#d40000"
         id="path32906"
         d="m 21.535,285.393 c 2.75,-0.427 5.153,-0.925 5.339,-1.108 0.187,-0.183 2.8,-10.12 5.807,-22.082 6.005,-23.889 5.867,-22.39 2.079,-22.465 -1.951,-0.039 -2.975,-0.765 -2.975,-2.111 0,-1.448 1.309,-1.748 5.554,-1.272 3.985,0.447 4.095,0.428 8.616,-1.432 61.894,-25.467 109.629,-57.695 143.63,-96.97 3.179,-3.673 10.197,-12.474 10.957,-13.74 0.244,-0.407 -3.488,2.855 -8.293,7.25 -60.006,54.872 -102.28,82.485 -158.023,103.22 l -4.309,1.603 -0.559,4.833 c -1.212,10.489 -5.564,20.577 -16.341,37.877 -2.328,3.737 -4.232,6.963 -4.232,7.17 0,0.547 6.959,0.125 12.75,-0.773 z"
         inkscape:connector-curvature="0" />
      <path
         style="fill:#d40000"
         id="path32904"
         d="m 190.342,285.706 c 4.647,-0.858 10.41,-4.081 14.993,-8.386 2.264,-2.127 4.964,-4.938 6.001,-6.246 l 1.884,-2.379 2.251,2.925 c 3.421,4.445 9.495,9.863 12.985,11.581 2.916,1.436 8.215,2.719 8.48,2.054 0.066,-0.166 0.041,-8.234 -0.055,-17.927 l -0.175,-17.625 -26.166,0 -26.165,0 -0.278,4.125 c -0.153,2.268 -0.403,10.351 -0.556,17.961 -0.261,12.957 -0.222,13.851 0.608,14.067 1.556,0.405 3.427,0.36 6.193,-0.15 z"
         inkscape:connector-curvature="0" />
      <path
         style="fill:#d40000"
         id="path32902"
         d="m 410.453,283.578 c -1.39,-4.687 -2.731,-7.954 -7.544,-18.375 -5.506,-11.921 -8.46,-20.307 -8.928,-25.349 l -0.332,-3.57 -4.307,-1.607 c -7.993,-2.983 -28.523,-11.937 -38.699,-16.879 -34.362,-16.687 -64.876,-36.736 -93.509,-61.439 -9.279,-8.006 -24.734,-22.616 -31.887,-30.145 -9.933,-10.455 -8.997,-7.471 1.803,5.747 33.449,40.938 81.744,75.193 142.245,100.893 l 7.76,3.296 5.057,-0.549 c 5.519,-0.6 6.673,-0.423 6.673,1.025 0,1.38 -0.906,1.918 -3.909,2.322 -1.663,0.224 -2.584,0.573 -2.459,0.931 0.11,0.316 2.755,10.744 5.876,23.174 l 5.676,22.6 1.533,0.195 c 0.843,0.107 4.727,0.231 8.631,0.275 l 7.098,0.08 z"
         inkscape:connector-curvature="0" />
      <path
         id="path32900"
         d="m 181.945,267.61 c 0.176,-9.676 0.204,-17.71 0.061,-17.853 -0.143,-0.143 -6.72,-0.421 -14.615,-0.619 -7.896,-0.198 -16.514,-0.497 -19.151,-0.665 l -4.795,-0.305 -0.329,10.892 c -0.415,13.752 -0.424,25.143 -0.02,25.143 0.172,0 1.69,-0.99 3.375,-2.199 3.76,-2.698 7.893,-6.713 11.067,-10.753 1.317,-1.677 2.555,-3.048 2.752,-3.048 0.196,0 1.493,1.518 2.882,3.375 2.798,3.74 5.116,6.065 8.863,8.889 2.448,1.845 7.967,4.734 9.044,4.735 0.376,10e-4 0.644,-5.442 0.866,-17.592 z"
         inkscape:connector-curvature="0"
         style="fill:#ffffff" />
      <path
         id="path32898"
         d="m 242.356,284.531 c 4.816,-1.449 11.306,-6.631 15.285,-12.203 1.227,-1.719 2.448,-3.125 2.712,-3.125 0.265,0 2.428,2.046 4.808,4.547 2.381,2.501 5.688,5.516 7.351,6.7 3.21,2.285 7.595,4.597 7.984,4.208 0.128,-0.128 -0.428,-7.877 -1.237,-17.219 -0.808,-9.343 -1.471,-17.519 -1.472,-18.169 l -0.002,-1.182 -9.125,0.378 c -5.019,0.209 -13.85,0.516 -19.625,0.683 l -10.5,0.304 0.027,1.625 c 0.016,0.893 0.072,8.937 0.125,17.875 0.079,13.206 0.223,16.25 0.768,16.25 0.369,0 1.674,-0.302 2.901,-0.672 z"
         inkscape:connector-curvature="0"
         style="fill:#ffffff" />
      <path
         id="path32896"
         d="m 391.785,284.834 c 0,-0.524 -11.134,-44.839 -11.327,-45.083 -0.191,-0.241 -24.816,2.428 -25.11,2.721 -0.111,0.112 0.729,6.03 1.867,13.151 1.138,7.121 2.071,13.258 2.072,13.638 0.002,0.381 0.546,0.017 1.209,-0.808 l 1.206,-1.5 4.667,4.538 c 2.566,2.495 5.752,5.274 7.079,6.175 3.324,2.255 9.911,5.279 14.097,6.472 4.057,1.155 4.24,1.185 4.24,0.696 z"
         inkscape:connector-curvature="0"
         style="fill:#ffffff" />
      <path
         id="path32894"
         d="m 34.881,282.159 c 8.457,-2.806 16.706,-7.133 21.977,-11.527 l 2.324,-1.937 0.986,1.557 0.986,1.557 0.304,-1.678 c 0.232,-1.283 3.399,-22.323 3.974,-26.405 0.083,-0.59 -2.259,-0.977 -12.397,-2.049 -6.875,-0.726 -12.647,-1.187 -12.827,-1.023 -0.278,0.254 -10.923,41.919 -10.923,42.754 0,0.517 0.838,0.33 5.596,-1.249 z"
         inkscape:connector-curvature="0"
         style="fill:#ffffff" />
      <path
         style="fill:#d40000"
         id="path32892"
         d="m 235.561,245.593 c 0.138,-0.138 -1.332,-6.609 -3.265,-14.381 -7.318,-29.42 -13.605,-61.846 -18.955,-97.759 -1.721,-11.55 -1.941,-12.512 -2.898,-12.652 -0.938,-0.138 -1.091,0.238 -1.625,4 -4.044,28.476 -10.19,62.502 -15.818,87.577 -2.091,9.315 -7.466,31.094 -8.05,32.615 -0.188,0.491 0.556,0.714 2.916,0.873 4.276,0.289 47.381,0.042 47.695,-0.273 z"
         inkscape:connector-curvature="0" />
      <path
         id="path32890"
         d="m 184.363,240.203 c 6.699,-24.812 14.948,-65.449 20.146,-99.25 0.972,-6.325 1.885,-12.159 2.027,-12.964 0.412,-2.326 -0.16,-1.295 -3.221,5.805 -13.209,30.635 -31.759,66.137 -52.157,99.824 -3.553,5.866 -6.362,10.762 -6.244,10.88 0.363,0.363 21.152,1.067 29.826,1.009 l 8.205,-0.054 z"
         inkscape:connector-curvature="0"
         style="fill:#ffffff" />
      <path
         id="path32888"
         d="m 258.785,245.146 c 9.212,-0.313 16.831,-0.641 16.93,-0.728 0.099,-0.087 -2.962,-5.402 -6.802,-11.812 -20.606,-34.394 -38.271,-68.412 -51.408,-99.001 -1.618,-3.767 -3.023,-6.766 -3.123,-6.666 -0.399,0.399 4.606,31.363 8.205,50.764 3.882,20.926 9.803,47.543 14.265,64.125 l 1.042,3.875 2.071,0.006 c 1.138,0.004 9.607,-0.25 18.82,-0.563 z"
         inkscape:connector-curvature="0"
         style="fill:#ffffff" />
      <path
         style="fill:#d40000"
         id="path32886"
         d="m 146.232,238.227 c 14.064,-22.696 30.466,-52.381 41.592,-75.274 8.299,-17.078 18.961,-41 18.961,-42.544 0,-1.545 -0.9,-0.486 -3.732,4.391 -3.944,6.791 -13.644,21.331 -18.782,28.153 -25.537,33.908 -56.676,59.668 -95.426,78.942 -4.57,2.274 -10.054,4.889 -12.185,5.811 -2.131,0.923 -3.875,1.828 -3.875,2.012 0,0.183 2.081,0.478 4.625,0.653 2.544,0.176 10.362,0.763 17.375,1.305 10.684,0.826 29.789,2.039 42.25,2.683 1.65,0.085 3.491,0.197 4.092,0.249 0.895,0.078 1.816,-1.073 5.105,-6.381 z"
         inkscape:connector-curvature="0" />
      <path
         style="fill:#d40000"
         id="path32884"
         d="m 294.855,243.433 c 11.853,-0.719 27.224,-1.862 44.554,-3.314 4.056,-0.34 7.206,-0.766 7,-0.947 -0.206,-0.181 -2.962,-1.515 -6.124,-2.964 -17.324,-7.939 -38.414,-20.707 -53.153,-32.18 -18.316,-14.259 -35.82,-32.203 -50.413,-51.681 -5.411,-7.222 -15.518,-22.395 -18.684,-28.049 -1.279,-2.284 -2.316,-3.576 -2.875,-3.584 -0.481,-0.006 -0.875,0.17 -0.875,0.392 0,0.222 1.541,3.99 3.425,8.375 14.584,33.938 31.134,65.985 52.727,102.097 l 7.549,12.625 2.094,0 c 1.152,0 7.801,-0.347 14.775,-0.77 z"
         inkscape:connector-curvature="0" />
      <path
         id="path32882"
         d="m 85.035,231.741 c 43.204,-20.913 76.389,-49.182 104.125,-88.699 4.675,-6.661 5.66,-8.329 3.302,-5.589 -25.867,30.05 -57.604,54.876 -98.068,76.716 -12.946,6.988 -36.982,18.31 -46.245,21.783 -1.313,0.492 -2.28,1.001 -2.15,1.132 0.13,0.13 5.141,0.723 11.136,1.319 l 10.9,1.083 4,-1.694 c 2.2,-0.932 8.05,-3.655 13,-6.051 z"
         inkscape:connector-curvature="0"
         style="fill:#ffffff" />
      <path
         id="path32880"
         d="m 370.775,236.831 2.241,-0.385 -9.741,-4.216 c -25.04,-10.839 -53.434,-26.577 -74.377,-41.224 -22.974,-16.069 -47.01,-37.74 -60.782,-54.803 -2.294,-2.843 -0.557,0.142 3.294,5.658 10.99,15.744 19.792,26.303 32.603,39.11 13.352,13.347 24.584,22.606 39.522,32.576 11.926,7.96 28.477,17.034 42.208,23.14 l 5.209,2.316 8.791,-0.894 c 4.836,-0.492 9.8,-1.067 11.032,-1.278 z"
         inkscape:connector-curvature="0"
         style="fill:#ffffff" />
      <path
         style="fill:#b3b3b3"
         id="path32878"
         d="m 215.318,113.276 1.144,-0.926 -1.392,-30.449 c -0.765,-16.746 -1.663,-36.688 -1.996,-44.315 -0.333,-7.626 -0.724,-13.985 -0.869,-14.13 -0.146,-0.145 -0.415,3.282 -0.599,7.616 -0.184,4.334 -1.128,23.293 -2.099,42.131 -0.97,18.837 -1.698,35.482 -1.618,36.987 0.125,2.345 0.325,2.828 1.396,3.368 1.832,0.923 4.711,0.789 6.033,-0.282 z"
         inkscape:connector-curvature="0" />
      <path
         style="fill:#ffd42a"
         id="path32876"
         d="m 250.866,63.985 c 7.94,-1.552 14.146,-4.595 19.075,-9.352 1.84,-1.776 2.689,-2.88 2.094,-2.724 -0.55,0.145 -2.998,0.607 -5.441,1.028 -10.861,1.873 -19.907,0.184 -24.954,-4.658 l -1.895,-1.818 0.063,8.653 c 0.061,8.374 0.098,8.667 1.145,9.089 1.658,0.669 5.85,0.577 9.913,-0.218 z"
         inkscape:connector-curvature="0" />
      <path
         style="fill:#ffd42a"
         id="path32874"
         d="m 237.948,47.078 c -0.337,-9.962 -0.407,-10.125 -5.121,-11.941 -2.043,-0.787 -4.315,-1.141 -8.472,-1.32 l -5.68,-0.244 0.289,1.94 c 0.158,1.067 0.437,5.596 0.619,10.065 0.285,7.023 0.44,8.125 1.141,8.127 0.446,0.002 3.089,-0.26 5.873,-0.582 5.602,-0.648 8.885,-0.136 10.49,1.638 0.469,0.518 0.92,0.942 1.003,0.942 0.082,0 0.018,-3.882 -0.142,-8.625 z"
         inkscape:connector-curvature="0" />
      <path
         style="fill:#857777;fill-opacity:1"
         id="path32872"
         d="m 214.943,14.644 c 1.884,-0.964 2.819,-2.566 2.831,-4.855 0.009,-1.733 -0.28,-2.454 -1.451,-3.625 -2.091,-2.091 -5.486,-2.091 -7.577,0 -2.367,2.367 -1.793,6.741 1.094,8.341 1.477,0.819 3.657,0.878 5.103,0.139 z"
         inkscape:connector-curvature="0" />
    </g>
  </g>
</svg>
